<svg width="66" height="66" viewBox="0 0 66 66" fill="none"
    xmlns="http://www.w3.org/2000/svg">
    
    <path d="M23.6415 45.8858V44.2213L26.6891 43.0258C26.8659 42.9614 27.0271 42.8602 27.1619 42.7288C27.2907 42.5724 27.3537 42.3721 27.3377 42.1701V23.1266H22.0982C21.9163 23.1176 21.7377 23.1776 21.5981 23.2946C21.4582 23.4359 21.3631 23.6153 21.3246 23.8104L20.4298 27.6863H17.6948V19.8719H43.1343V27.6863H40.3993L39.5046 23.8104C39.4699 23.6127 39.3677 23.4332 39.2154 23.3024C39.0856 23.1916 38.9212 23.1294 38.7505 23.1266H33.5266V42.1701C33.5198 42.2752 33.5342 42.3806 33.5691 42.48C33.6041 42.5793 33.6587 42.6706 33.7298 42.7483C33.8564 42.8721 34.0084 42.9667 34.1752 43.0258L37.2267 44.2213V45.8858H23.6415Z" fill="#4A90B9"/>
    <path d="M52.7967 14.5856L34.898 4.25115C33.4792 3.43152 31.8695 3 30.2309 3C28.5924 3 26.9827 3.43152 25.5638 4.25115L7.66515 14.5856C6.24596 15.4045 5.06756 16.5828 4.24859 18.002C3.42961 19.4211 2.99897 21.031 3 22.6695V43.3344C3.00015 44.9727 3.4313 46.5821 4.25016 48.001C5.06902 49.42 6.24676 50.5985 7.66515 51.4183L25.5638 61.7489C26.9827 62.5685 28.5924 63 30.2309 63C31.8695 63 33.4792 62.5685 34.898 61.7489L52.7967 51.4183C54.2151 50.5985 55.3928 49.42 56.2117 48.001C57.0305 46.5821 57.4617 44.9727 57.4618 43.3344V22.6695C57.4629 21.031 57.0322 19.4211 56.2133 18.002C55.3943 16.5828 54.2159 15.4045 52.7967 14.5856V14.5856Z" stroke="#4A90B9" stroke-width="6" stroke-miterlimit="10"/>
</svg>
    