<svg xmlns="http://www.w3.org/2000/svg" viewBox="0 0 577.24 159.57"><defs><style>.cls-1{fill:#4a90b9;}.cls-2{fill:none;stroke:#4a90b9;stroke-miterlimit:10;stroke-width:6px;}</style></defs><g id="Слой_2" data-name="Слой 2"><g id="Слой_1-2" data-name="Слой 1"><path class="cls-1" d="M176.32,105.69v-3.16l5.78-2.26a2.79,2.79,0,0,0,.9-.57,1.46,1.46,0,0,0,.33-1.06V62.52h-9.94a1.38,1.38,0,0,0-.95.32,1.93,1.93,0,0,0-.51,1l-1.7,7.35h-5.15V56.34h48.25V71.17h-5.19l-1.7-7.35a1.58,1.58,0,0,0-.54-1,1.44,1.44,0,0,0-.89-.34h-9.94V98.64a1.46,1.46,0,0,0,.38,1.09,2.36,2.36,0,0,0,.85.54l5.79,2.26v3.16Z"/><path class="cls-1" d="M231,106,219.15,74.1a2.78,2.78,0,0,0-.6-1,3.18,3.18,0,0,0-1-.69l-2.86-1.36V68h20.45v3.06L230,72.9l5.72,16.29,1.36,5.66h.73l6.29-19.16L247.28,68h6.55l7.71,21,1.57,5.86h.76l6.65-20.69-4.75-3.09V68h15.56v3.06l-3,2.36c-.33.25-.66.51-1,.8a2.14,2.14,0,0,0-.66,1l-7.91,23.15L265.07,106h-7.92L249.9,87.13l-1.19-5.35h-.6l-5.45,16.56L239.1,106Z"/><path class="cls-1" d="M284.79,105.69v-3.13l5.51-2a3,3,0,0,0,1-.57,1.26,1.26,0,0,0,.37-1V76.39a1.27,1.27,0,0,0-.38-1,3.36,3.36,0,0,0-1-.56l-5.49-2.16V69.44l18-.7V99a1.33,1.33,0,0,0,.4,1,2.61,2.61,0,0,0,.9.54l5.52,2v3.13Zm11.8-41.9a7.38,7.38,0,0,1-3.34-.82,7.87,7.87,0,0,1-2.74-2.19,4.79,4.79,0,0,1-1.1-3.08,4.63,4.63,0,0,1,2.18-4.17,9,9,0,0,1,5-1.41A10.05,10.05,0,0,1,302,53.4,4.25,4.25,0,0,1,304,57.27,5.54,5.54,0,0,1,303,60.58a7.44,7.44,0,0,1-2.77,2.34A7.88,7.88,0,0,1,296.59,63.79Z"/><path class="cls-1" d="M343.51,68V74h-13.3V94.15A4,4,0,0,0,331.39,97a8.17,8.17,0,0,0,2.78,1.91,7.28,7.28,0,0,0,2.75.68c.71,0,1.63,0,2.76-.1a25.07,25.07,0,0,0,2.53-.23h1.63v3.42c-.55.31-1.48.76-2.78,1.33a31.21,31.21,0,0,1-4.5,1.57,20.14,20.14,0,0,1-5.26.69,18.87,18.87,0,0,1-6.06-.94,11.2,11.2,0,0,1-4.53-2.7,5.66,5.66,0,0,1-1.71-4.1V74h-6.08V68.68c1.35-.18,2.52-.38,3.5-.59a4.12,4.12,0,0,0,2.35-1.31,5.55,5.55,0,0,0,1-3.29l.33-5.29,10.11-1.43V68Z"/><path class="cls-1" d="M377,68V74h-13.3V94.15A4,4,0,0,0,364.84,97a8.27,8.27,0,0,0,2.78,1.91,7.28,7.28,0,0,0,2.76.68c.71,0,1.63,0,2.76-.1a25.11,25.11,0,0,0,2.52-.23h1.63v3.42c-.55.31-1.48.76-2.77,1.33a31.8,31.8,0,0,1-4.51,1.57,20.12,20.12,0,0,1-5.25.69,18.88,18.88,0,0,1-6.07-.94,11.09,11.09,0,0,1-4.52-2.7,5.63,5.63,0,0,1-1.72-4.1V74h-6.08V68.68c1.35-.18,2.52-.38,3.51-.59a4.12,4.12,0,0,0,2.34-1.31,5.48,5.48,0,0,0,1-3.29l.33-5.29,10.11-1.43V68Z"/><path class="cls-1" d="M401.27,106.55a22.5,22.5,0,0,1-10.15-2.24,17,17,0,0,1-7.1-6.6,20.31,20.31,0,0,1-2.61-10.61,21.14,21.14,0,0,1,2.5-10.31,18.52,18.52,0,0,1,7-7.2A20.1,20.1,0,0,1,401.27,67a20.8,20.8,0,0,1,9.59,2,15,15,0,0,1,6.08,5.44,13.85,13.85,0,0,1,2.12,7.48c0,.31,0,.85-.07,1.63s-.09,1.54-.13,2.29-.09,1.28-.14,1.57h-26.4V81.88h15.3a17.45,17.45,0,0,0-.7-5.26,6.54,6.54,0,0,0-2.23-3.31,6.68,6.68,0,0,0-4.09-1.14,7.24,7.24,0,0,0-3.21.71,6.7,6.7,0,0,0-2.51,2.26,11.66,11.66,0,0,0-1.64,4,24.9,24.9,0,0,0-.59,5.8,22.37,22.37,0,0,0,1.12,7.49,9.13,9.13,0,0,0,3.92,4.88c1.87,1.16,4.52,1.73,7.93,1.73a22.86,22.86,0,0,0,4.72-.45,24.62,24.62,0,0,0,3.83-1.11c1.13-.44,2.1-.86,2.92-1.26H419v4.52a39.41,39.41,0,0,1-7.7,4A26.61,26.61,0,0,1,401.27,106.55Z"/><path class="cls-1" d="M425,105.69v-3.13l4.29-1.83a4.34,4.34,0,0,0,.94-.58,1.24,1.24,0,0,0,.36-1V77.32a7.67,7.67,0,0,0-.18-2.08,1.62,1.62,0,0,0-.95-.85l-4.79-2.12V69l16.56-1.73v7.75h.43a22.74,22.74,0,0,1,4.23-5.22,11,11,0,0,1,3.92-2.28,13.23,13.23,0,0,1,3.63-.55,14.43,14.43,0,0,1,3.29.4,8.9,8.9,0,0,1,3.16,1.5V80.58h-8.25l-1-2.49a3.93,3.93,0,0,0-1.05-1.32,2.76,2.76,0,0,0-1.94-.75,6.93,6.93,0,0,0-2,.29,6,6,0,0,0-1.88,1,14.12,14.12,0,0,0-2,1.89v20a1.61,1.61,0,0,0,1.3,1.56l5.82,1.83v3.13Z"/><path class="cls-1" d="M490.25,106.82a28.65,28.65,0,0,1-13.9-3.11,20.52,20.52,0,0,1-8.63-8.91,30.42,30.42,0,0,1-2.94-13.89,28.27,28.27,0,0,1,3.06-13.38,22.13,22.13,0,0,1,8.78-9.08,27.16,27.16,0,0,1,13.7-3.27q8.7,0,14.33,3.35A20.92,20.92,0,0,1,513,67.7a30.5,30.5,0,0,1,2.74,13.21,31.66,31.66,0,0,1-1.46,9.63,23.94,23.94,0,0,1-4.56,8.31,21.57,21.57,0,0,1-7.91,5.82A28.31,28.31,0,0,1,490.25,106.82Zm.53-6a10.19,10.19,0,0,0,6.85-2.33,14,14,0,0,0,4.09-6.55A32.23,32.23,0,0,0,503.08,82a38.1,38.1,0,0,0-1.43-11.17,14.64,14.64,0,0,0-4.39-7.15,11.29,11.29,0,0,0-7.54-2.49,10.07,10.07,0,0,0-7.09,2.47,14.36,14.36,0,0,0-3.92,6.69,33.37,33.37,0,0,0-1.23,9.39A39.73,39.73,0,0,0,478.88,91a15,15,0,0,0,4.34,7.28A11.08,11.08,0,0,0,490.78,100.8Z"/><path class="cls-1" d="M522.9,105.69v-3.16l5.49-2.26a2.58,2.58,0,0,0,.88-.57,1.51,1.51,0,0,0,.32-1.06V63.26a1.26,1.26,0,0,0-.35-1,3.08,3.08,0,0,0-.85-.5L522.9,59.5V56.34H548V59.5l-5.45,2.26a3.42,3.42,0,0,0-.88.5,1.18,1.18,0,0,0-.39,1V81.74l18.56-20.18-3-2.06V56.34h18.59V59.5l-5.82,1.83a7.42,7.42,0,0,0-1.36.6,5.5,5.5,0,0,0-1.33,1L553.49,76.89l16.5,22c.24.29.59.66,1,1.11a3.77,3.77,0,0,0,1.16.89l5.06,1.82v3H555.46v-3l2-1.76L544.72,83.84l-3.4,1.36V98.64a1.38,1.38,0,0,0,.39,1.08,3,3,0,0,0,.88.55l5.45,2.26v3.16Z"/><path class="cls-1" d="M55.83,112.76V108.5l7.8-3.06a3.4,3.4,0,0,0,1.21-.76,2,2,0,0,0,.45-1.43V54.51H51.88a1.85,1.85,0,0,0-1.28.43,2.59,2.59,0,0,0-.7,1.32l-2.29,9.92h-7v-20h65.11v20h-7l-2.29-9.92a2.22,2.22,0,0,0-.74-1.3,1.88,1.88,0,0,0-1.19-.45H81.13v48.74a2,2,0,0,0,.52,1.48,3.12,3.12,0,0,0,1.14.71l7.81,3.06v4.26Z"/><path class="cls-2" d="M130.45,32.65,84.64,6.2a23.88,23.88,0,0,0-23.89,0L14.94,32.65A23.87,23.87,0,0,0,3,53.34v52.89a23.9,23.9,0,0,0,11.94,20.69l45.81,26.44a23.88,23.88,0,0,0,23.89,0l45.81-26.44a23.9,23.9,0,0,0,11.94-20.69V53.34A23.87,23.87,0,0,0,130.45,32.65Z"/></g></g></svg>