<svg width="228" height="66" viewBox="0 0 228 66" fill="none" xmlns="http://www.w3.org/2000/svg">
<path d="M70.7188 43.1235V41.8888L72.9771 41.0058C73.1076 40.9548 73.2269 40.8792 73.3288 40.7831C73.4246 40.6674 73.4709 40.5186 73.4577 40.3689V26.2563H69.574C69.439 26.25 69.3065 26.2946 69.2028 26.3813C69.0991 26.4889 69.0298 26.6249 69.0035 26.772L68.3393 29.6438H66.3271V23.8417H85.1792V29.636H83.1514L82.4871 26.7642C82.4677 26.6123 82.3925 26.4731 82.2762 26.3735C82.1787 26.2911 82.056 26.2442 81.9284 26.2407H78.0447V40.3689C78.0392 40.4463 78.0495 40.524 78.0751 40.5972C78.1006 40.6704 78.1408 40.7377 78.1932 40.7948C78.2874 40.8882 78.4007 40.9602 78.5253 41.0058L80.7875 41.8888V43.1235H70.7188Z" fill="#4A90B9"/>
<path d="M92.0831 43.2445L87.4532 30.7807C87.4035 30.6354 87.3236 30.5022 87.2187 30.39C87.107 30.2758 86.9744 30.1843 86.828 30.1204L85.7106 29.589V28.3973H93.7007V29.5929L91.6924 30.3118L93.9273 36.6766L94.4587 38.8881H94.7439L97.2015 31.4019L98.444 28.3973H101.003L104.016 36.6024L104.629 38.892H104.926L107.524 30.8081L105.668 29.6007V28.3973H111.748V29.5929L110.576 30.515C110.447 30.6127 110.318 30.7143 110.185 30.8276C110.064 30.9306 109.974 31.0662 109.927 31.2183L106.837 40.2634L105.395 43.2445H102.3L99.4677 35.8717L99.0027 33.7814H98.7683L96.6389 40.2516L95.2479 43.2445H92.0831Z" fill="#4A90B9"/>
<path d="M113.1 43.1235V41.9006L115.253 41.1191C115.396 41.0708 115.529 40.9952 115.643 40.8964C115.694 40.8458 115.734 40.7846 115.759 40.7171C115.784 40.6496 115.794 40.5774 115.788 40.5057V31.6755C115.793 31.6035 115.782 31.5313 115.757 31.4638C115.731 31.3963 115.691 31.3352 115.639 31.2848C115.523 31.19 115.39 31.116 115.249 31.066L113.104 30.2221V28.9601L120.137 28.6866V40.5096C120.134 40.582 120.146 40.6542 120.173 40.7215C120.2 40.7888 120.241 40.8497 120.293 40.9003C120.395 40.9937 120.514 41.0655 120.644 41.1113L122.801 41.8927V43.1157L113.1 43.1235ZM117.71 26.7525C117.256 26.75 116.809 26.6402 116.405 26.4321C115.989 26.2311 115.623 25.9386 115.335 25.5765C115.055 25.2382 114.902 24.8122 114.905 24.3731C114.888 24.0501 114.959 23.7287 115.108 23.4421C115.258 23.1556 115.482 22.9144 115.757 22.7438C116.339 22.3721 117.019 22.1805 117.71 22.1929C118.448 22.1575 119.18 22.3308 119.824 22.693C120.079 22.8511 120.286 23.0751 120.423 23.3413C120.561 23.6075 120.624 23.906 120.605 24.205C120.616 24.6668 120.48 25.12 120.215 25.4983C119.935 25.8877 119.563 26.2018 119.132 26.4126C118.692 26.6385 118.205 26.7551 117.71 26.7525Z" fill="#4A90B9"/>
<path d="M136.043 28.3974V30.7417H130.846V38.6146C130.845 38.8215 130.886 39.0264 130.965 39.2176C131.044 39.4087 131.16 39.5823 131.307 39.7281C131.613 40.0497 131.983 40.3039 132.393 40.4744C132.731 40.6325 133.096 40.7227 133.468 40.7401C133.745 40.7401 134.105 40.7401 134.546 40.701C134.877 40.6878 135.207 40.6578 135.535 40.6111H136.171V41.9474C135.957 42.0685 135.593 42.2443 135.085 42.467C134.516 42.716 133.928 42.9211 133.327 43.0805C132.657 43.2606 131.966 43.3512 131.272 43.3501C130.468 43.3576 129.668 43.2335 128.904 42.9828C128.239 42.777 127.632 42.4154 127.134 41.9279C126.921 41.7197 126.751 41.4705 126.636 41.1952C126.522 40.9199 126.464 40.6242 126.466 40.3259V30.7417H124.091V28.6631C124.618 28.5927 125.075 28.5146 125.458 28.4325C125.813 28.3695 126.136 28.1893 126.376 27.9207C126.639 27.5444 126.776 27.0943 126.767 26.6353L126.896 24.5684L130.846 24.0096V28.3974H136.043Z" fill="#4A90B9"/>
<path d="M149.128 28.3974V30.7417H143.931V38.6146C143.928 38.8204 143.966 39.0247 144.043 39.2158C144.119 39.4069 144.233 39.581 144.377 39.7281C144.684 40.0489 145.053 40.3029 145.463 40.4744C145.801 40.633 146.168 40.7232 146.541 40.7401C146.819 40.7401 147.178 40.7401 147.619 40.701C147.949 40.6876 148.278 40.6576 148.604 40.6111H149.241V41.9474C149.026 42.0685 148.663 42.2443 148.159 42.467C147.588 42.7154 146.998 42.9205 146.397 43.0805C145.728 43.2603 145.038 43.351 144.345 43.3501C143.54 43.3579 142.739 43.2339 141.974 42.9828C141.309 42.778 140.703 42.4162 140.208 41.9279C139.993 41.7204 139.822 41.4715 139.707 41.196C139.591 40.9206 139.533 40.6246 139.536 40.3259V30.7417H137.16V28.6631C137.688 28.5927 138.145 28.5146 138.531 28.4325C138.885 28.3687 139.207 28.1885 139.446 27.9207C139.711 27.5452 139.847 27.0946 139.836 26.6353L139.965 24.5684L143.916 24.0096V28.3974H149.128Z" fill="#4A90B9"/>
<path d="M158.61 43.4594C157.238 43.4812 155.88 43.1815 154.644 42.5842C153.489 42.0121 152.525 41.1161 151.87 40.0055C151.158 38.7428 150.806 37.3091 150.851 35.86C150.829 34.4561 151.165 33.0696 151.827 31.8317C152.463 30.66 153.409 29.6865 154.562 29.0186C155.796 28.3225 157.194 27.9728 158.61 28.0066C159.904 27.9651 161.188 28.233 162.357 28.7881C163.33 29.2635 164.153 29.9992 164.733 30.9136C165.282 31.7887 165.57 32.8028 165.561 33.8361C165.561 33.9572 165.561 34.1682 165.534 34.473C165.506 34.7777 165.499 35.0747 165.483 35.3677C165.467 35.6607 165.448 35.8678 165.428 35.9811H155.113V33.8205H161.091C161.105 33.1255 161.013 32.4324 160.818 31.7653C160.669 31.254 160.365 30.8018 159.947 30.472C159.476 30.1537 158.915 29.9974 158.348 30.0266C157.915 30.0217 157.486 30.1166 157.094 30.304C156.697 30.5098 156.36 30.8138 156.114 31.1871C155.804 31.6635 155.587 32.1936 155.473 32.7499C155.307 33.4937 155.23 34.2543 155.242 35.0161C155.221 36.0093 155.369 36.999 155.68 37.9425C155.95 38.7387 156.492 39.414 157.211 39.8492C157.942 40.3025 158.978 40.5252 160.31 40.5252C160.929 40.5306 161.547 40.4717 162.154 40.3493C162.664 40.2455 163.164 40.1004 163.65 39.9156C164.092 39.7437 164.471 39.5796 164.791 39.4233H165.538V41.1894C164.595 41.8195 163.586 42.3436 162.529 42.7522C161.281 43.2383 159.95 43.4784 158.61 43.4594Z" fill="#4A90B9"/>
<path d="M167.882 43.1234V41.9004L169.558 41.1854C169.69 41.1258 169.813 41.0497 169.925 40.9588C169.976 40.9082 170.015 40.8469 170.04 40.7793C170.064 40.7117 170.073 40.6396 170.066 40.5681V32.0388C170.08 31.7659 170.056 31.4925 169.996 31.2261C169.96 31.1485 169.908 31.0791 169.844 31.022C169.78 30.9649 169.706 30.9214 169.625 30.894L167.753 30.0657V28.788L174.223 28.1121V31.1401H174.391C174.838 30.3822 175.395 29.6949 176.044 29.1006C176.487 28.7005 177.009 28.3971 177.576 28.2098C178.036 28.0726 178.513 28.0002 178.994 27.9949C179.427 27.9974 179.858 28.0499 180.279 28.1512C180.726 28.2629 181.145 28.4621 181.514 28.7372V33.3125H178.291L177.9 32.3396C177.802 32.14 177.662 31.9641 177.49 31.8239C177.285 31.6311 177.013 31.5259 176.732 31.5308C176.467 31.5302 176.204 31.5684 175.95 31.6442C175.684 31.7296 175.435 31.8619 175.216 32.0349C174.932 32.255 174.67 32.5023 174.434 32.7733V40.5876C174.436 40.7321 174.488 40.8716 174.58 40.9826C174.673 41.0936 174.8 41.1693 174.942 41.1972L177.216 41.9122V43.1351L167.882 43.1234Z" fill="#4A90B9"/>
<path d="M193.376 43.565C191.492 43.6236 189.624 43.2056 187.945 42.3499C186.489 41.5651 185.311 40.3491 184.573 38.8686C183.768 37.1755 183.374 35.3158 183.425 33.4415C183.388 31.6272 183.798 29.8317 184.62 28.2138C185.395 26.7231 186.587 25.4903 188.051 24.6661C189.692 23.7769 191.538 23.3362 193.403 23.3884C195.67 23.3884 197.536 23.8247 199.002 24.6973C200.427 25.5344 201.565 26.7836 202.265 28.2802C203.003 29.8992 203.368 31.6628 203.335 33.4415C203.341 34.7177 203.148 35.9869 202.765 37.2041C202.393 38.3943 201.788 39.4983 200.983 40.451C200.142 41.4365 199.084 42.2147 197.893 42.7249C196.463 43.318 194.924 43.6042 193.376 43.565ZM193.583 41.2207C194.557 41.2548 195.509 40.931 196.26 40.3103C197.022 39.6239 197.575 38.7371 197.858 37.7511C198.236 36.4922 198.416 35.1818 198.389 33.8674C198.42 32.393 198.232 30.9222 197.83 29.5031C197.543 28.4245 196.947 27.4534 196.115 26.7095C195.283 26.0392 194.236 25.6935 193.169 25.7366C192.156 25.6892 191.163 26.0349 190.399 26.7017C189.658 27.4161 189.128 28.3203 188.867 29.3156C188.533 30.5095 188.372 31.7448 188.387 32.9844C188.358 34.4695 188.542 35.9511 188.934 37.3839C189.214 38.4753 189.802 39.4629 190.629 40.2283C191.458 40.9114 192.511 41.2624 193.583 41.2129V41.2207Z" fill="#4A90B9"/>
<path d="M206.133 43.1235V41.8888L208.278 41.0058C208.407 40.9559 208.524 40.8801 208.622 40.7831C208.715 40.6659 208.759 40.5178 208.747 40.3689V26.5454C208.754 26.4743 208.745 26.4025 208.722 26.335C208.698 26.2675 208.66 26.206 208.61 26.1547C208.511 26.0722 208.399 26.0062 208.278 25.9594L206.133 25.0763V23.8417H215.94V25.0763L213.811 25.9594C213.687 26.0071 213.571 26.0729 213.467 26.1547C213.412 26.2032 213.37 26.2638 213.344 26.3317C213.317 26.3997 213.307 26.4729 213.314 26.5454V33.7658L220.566 25.8812L219.394 25.0763V23.8417H226.657V25.0763L224.383 25.7913C224.199 25.8515 224.021 25.93 223.852 26.0258C223.66 26.1289 223.485 26.2607 223.332 26.4165L218.085 31.8709L224.532 40.4666C224.626 40.5799 224.762 40.7245 224.923 40.9003C225.049 41.0447 225.203 41.1628 225.376 41.2481L227.353 41.9592V43.1313H218.855V41.9592L219.636 41.2715L214.658 34.5864L213.33 35.1177V40.3689C213.324 40.4461 213.334 40.5237 213.36 40.5965C213.387 40.6693 213.428 40.7356 213.482 40.7909C213.584 40.882 213.7 40.9547 213.826 41.0058L215.956 41.8888V43.1235H206.133Z" fill="#4A90B9"/>
<path d="M23.6415 45.8858V44.2213L26.6891 43.0258C26.8659 42.9614 27.0271 42.8602 27.1619 42.7288C27.2907 42.5724 27.3537 42.3721 27.3377 42.1701V23.1266H22.0982C21.9163 23.1176 21.7377 23.1776 21.5981 23.2946C21.4582 23.4359 21.3631 23.6153 21.3246 23.8104L20.4298 27.6863H17.6948V19.8719H43.1343V27.6863H40.3993L39.5046 23.8104C39.4699 23.6127 39.3677 23.4332 39.2154 23.3024C39.0856 23.1916 38.9212 23.1294 38.7505 23.1266H33.5266V42.1701C33.5198 42.2752 33.5342 42.3806 33.5691 42.48C33.6041 42.5793 33.6587 42.6706 33.7298 42.7483C33.8564 42.8721 34.0084 42.9667 34.1752 43.0258L37.2267 44.2213V45.8858H23.6415Z" fill="#4A90B9"/>
<path d="M52.7967 14.5856L34.898 4.25115C33.4792 3.43152 31.8695 3 30.2309 3C28.5924 3 26.9827 3.43152 25.5638 4.25115L7.66515 14.5856C6.24596 15.4045 5.06756 16.5828 4.24859 18.002C3.42961 19.4211 2.99897 21.031 3 22.6695V43.3344C3.00015 44.9727 3.4313 46.5821 4.25016 48.001C5.06902 49.42 6.24676 50.5985 7.66515 51.4183L25.5638 61.7489C26.9827 62.5685 28.5924 63 30.2309 63C31.8695 63 33.4792 62.5685 34.898 61.7489L52.7967 51.4183C54.2151 50.5985 55.3928 49.42 56.2117 48.001C57.0305 46.5821 57.4617 44.9727 57.4618 43.3344V22.6695C57.4629 21.031 57.0322 19.4211 56.2133 18.002C55.3943 16.5828 54.2159 15.4045 52.7967 14.5856V14.5856Z" stroke="#4A90B9" stroke-width="6" stroke-miterlimit="10"/>
</svg>
